
<svg xmlns="http://www.w3.org/2000/svg" viewBox="0 0 780 500" width="100%" height="100%">
  <path d="M40,0h700c22.1,0,40,17.9,40,40v420c0,22.1-17.9,40-40,40H40c-22.1,0-40-17.9-40-40V40C0,17.9,17.9,0,40,0z" fill="#16366F"/>
  <path d="M449.9,250c0,99.4-80.5,179.9-179.9,179.9S90.1,349.4,90.1,250S170.6,70.1,270,70.1S449.9,150.6,449.9,250" fill="#D9222A"/>
  <path d="M510,70.1c-48.8,0-93,20-124.8,52.2c-5.4,5.4-10.4,11.2-15,17.3h29.9c4.1,5.4,7.9,11.1,11.2,17H459c3,5.5,5.6,11.2,7.9,17h-93.2c-2.1,5.5-3.9,11.1-5.5,17h104.1c1.4,5.5,2.6,11.2,3.4,17H367.8c-0.8,5.6-1.3,11.3-1.3,17c0,5.7,0.5,11.3,1.3,16.8h108.9c-0.8,5.8-2,11.4-3.4,16.8H373.3c1.5,5.8,3.4,11.4,5.5,16.8h93.2c-2.3,5.8-4.9,11.4-7.9,16.8h-77.3c-3.3,5.9-7.1,11.5-11.2,16.8h29.9c4.6,5.9,9.6,11.7,15,17.3c31.8,32.2,76,52.2,124.8,52.2c97.1,0,175.9-79,175.9-176.2S607.1,70.1,510,70.1" fill="#EE9F2D"/>
  <path d="M666.1,350.3v-6.1h2.5v-1.2h-6.3v1.2h2.5v6.1H666.1z M678.7,350.3v-7.3h-1.9l-2.2,5.2l-2.2-5.2h-1.9v7.3h1.3v-5.5l2.1,4.8h1.4l2.1-4.8v5.5H678.7z" fill="#fff"/>
  <path d="M388.6,273.5h3.9v-24.7h-3.9V273.5z M466.3,249.3l-5,12.3l-0.5-12.3h-7.2l-4.2,24.2h3.8l3.2-18.5l0.7,18.5h3.6l6.3-18.5l-3.5,18.5h4.2l4.8-24.2H466.3z M330.5,253.9c0-2.1,1.7-3.1,4.1-3.1c2.2,0.1,4.4,0.7,6.3,1.8v-4.5c-2.1-0.8-4.3-1.2-6.5-1.2c-5.3,0-8.6,2.6-8.6,7.3c0,7.6,10.5,6.4,10.5,9.7c0,1.8-1.7,2.8-4.1,2.8c-2.5,0-4.9-0.8-6.9-2.3v4.7c2.3,1,4.8,1.5,7.3,1.5c5.6,0,8.8-2.6,8.8-7.2C341,255.7,330.5,256.8,330.5,253.9 M445.4,264.1c1.1,0,1.9,0.2,2.9,0.4v-4c-0.5-0.1-1.1-0.2-1.6-0.2c-2,0-3-0.9-3-3.2v-10.2h3.8v-3.8h-3.8V237h-5.3v6.1h-3.4v3.8h3.4v10.8C438.3,262.1,440.7,264.1,445.4,264.1 M414.8,248.7c-2.8,0-4.8,1.3-5.9,3.4l-0.3-2.9h-4.5v24.3h4.9v-14.5c0-2.9,1.5-4.8,3.6-4.8c2.4,0,3.3,1.6,3.3,4.6v14.8h4.9v-15.8C420.8,251.2,418.1,248.7,414.8,248.7 M366.7,251.5c0-0.6,0.5-1.1,1.4-1.1c1.6,0,3.1,0.5,4.3,1.3v-4.3c-1.4-0.7-3-1-4.5-1c-3.6,0-6.5,1.8-6.5,5.4c0,6.2,6.8,4.9,6.8,7.5c0,1-0.9,1.3-1.7,1.3c-1.8,0-3.5-0.7-4.9-1.8v4.5c1.7,0.9,3.7,1.3,5.6,1.2c3.5,0,6.1-1.7,6.1-5.3C373.3,252.8,366.7,253.8,366.7,251.5 M400.4,257.9c0-5.5-3.2-9.2-8.2-9.2c-5.2,0-8.6,3.9-8.6,9.6c0,5.9,3.4,9.6,8.8,9.6c2.6,0.1,5.1-0.7,7.2-2.2v-4c-1.6,1.2-3.5,1.9-5.5,1.9c-2.2,0-4.5-1-4.7-3.9h10.9C400.3,259.2,400.4,258.2,400.4,257.9 M389.4,255.9c0.2-2.3,1.5-3.7,3.5-3.7c1.9,0,3.2,1.3,3.4,3.7H389.4z" fill="#fff"/>
</svg>
