
<svg xmlns="http://www.w3.org/2000/svg" viewBox="0 0 780 500" width="100%" height="100%">
  <path d="M40,0h700c22.1,0,40,17.9,40,40v420c0,22.1-17.9,40-40,40H40c-22.1,0-40-17.9-40-40V40C0,17.9,17.9,0,40,0z" fill="#fff"/>
  <path d="M187.3,158.4c-4.7-6.5-13.6-10.1-24.8-10.1h-36.2c-3.2,0-6,2.3-6.5,5.4L96.2,341.9c-0.4,2.4,1.5,4.5,3.9,4.5h30l7.5-47.7v1.5c0.5-3.1,3.2-5.4,6.5-5.4h13.6c26.5,0,47.2-10.8,53.2-41.9c0.2-0.9,0.3-1.8,0.4-2.7c-0.1-0.1-0.1-0.1,0,0c2-12.7-0.1-21.4-6.5-28.9C198.7,166.1,193.5,161.7,187.3,158.4z" fill="#003087"/>
  <path d="M204.7,221.3c-0.2,0.9-0.3,1.8-0.4,2.7c-6.1,31.1-26.7,41.9-53.2,41.9h-13.6c-3.2,0-6,2.3-6.5,5.4l-10.1,64.3c-0.3,2,1.2,3.8,3.2,3.8h26.3c2.7,0,5-2,5.4-4.7l0.2-1.1l4.3-27.5l0.3-1.5c0.4-2.7,2.7-4.7,5.4-4.7h3.4c22.1,0,39.4-9,44.5-35c2.1-10.9,1-20-4.6-26.5C207.7,225.6,206.2,223.3,204.7,221.3z" fill="#3086C8"/>
  <path d="M193.6,219.7c-0.8-0.2-1.6-0.4-2.4-0.6c-0.8-0.2-1.7-0.3-2.5-0.4c-3-0.4-6.2-0.6-9.7-0.6h-29.3c-0.7,0-1.4,0.1-2,0.4c-1.3,0.5-2.3,1.5-2.7,2.9l-6.9,43.6v1.5c0.5-3.1,3.2-5.4,6.5-5.4h13.6c26.5,0,47.2-10.8,53.2-41.9c0.2-0.9,0.3-1.8,0.4-2.7c-1.2-0.6-2.5-1.2-3.8-1.6C196.1,220.3,194.9,220,193.6,219.7z" fill="#012169"/>
  <path d="M344.7,158.4c-4.7-6.5-13.6-10.1-24.8-10.1h-36.2c-3.2,0-6,2.3-6.5,5.4l-23.6,148.2c-0.4,2.4,1.5,4.5,3.9,4.5h27.5l6.9-43.7v1.5c0.5-3.1,3.2-5.4,6.5-5.4h13.6c26.5,0,47.2-10.8,53.2-41.9c0.2-0.9,0.3-1.8,0.4-2.7c-0.1-0.1-0.1-0.1,0,0c2-12.7-0.1-21.4-6.5-28.9C356,166.1,350.9,161.7,344.7,158.4z" fill="#003087"/>
  <path d="M362,221.3c-0.2,0.9-0.3,1.8-0.4,2.7c-6.1,31.1-26.7,41.9-53.2,41.9h-13.6c-3.2,0-6,2.3-6.5,5.4l-10.1,64.3c-0.3,2,1.2,3.8,3.2,3.8h26.3c2.7,0,5-2,5.4-4.7l0.2-1.1l4.3-27.5l0.3-1.5c0.4-2.7,2.7-4.7,5.4-4.7h3.4c22.1,0,39.4-9,44.5-35c2.1-10.9,1-20-4.6-26.5C365.1,225.6,363.5,223.3,362,221.3z" fill="#3086C8"/>
  <path d="M350.9,219.7c-0.8-0.2-1.6-0.4-2.4-0.6c-0.8-0.2-1.7-0.3-2.5-0.4c-3-0.4-6.2-0.6-9.7-0.6h-29.3c-0.7,0-1.4,0.1-2,0.4c-1.3,0.5-2.3,1.5-2.7,2.9l-6.9,43.6v1.5c0.5-3.1,3.2-5.4,6.5-5.4h13.6c26.5,0,47.2-10.8,53.2-41.9c0.2-0.9,0.3-1.8,0.4-2.7c-1.2-0.6-2.5-1.2-3.8-1.6C353.5,220.3,352.2,220,350.9,219.7z" fill="#012169"/>
</svg>
