
<svg xmlns="http://www.w3.org/2000/svg" viewBox="0 0 780 500" width="100%" height="100%">
  <path d="M40,0h700c22.1,0,40,17.9,40,40v420c0,22.1-17.9,40-40,40H40c-22.1,0-40-17.9-40-40V40C0,17.9,17.9,0,40,0z" fill="#fff"/>
  <path d="M418.9,153.1l-143,185.6l-50.4-74.1l143-185.6L418.9,153.1z" fill="#097939"/>
  <path d="M418.9,153.1l-143,185.6l-50.4-74.1" fill="none"/>
  <path d="M454.8,74.3c-20.8,0-40.3,8.1-55,22.8L243.6,285.5c-10.5,13.5-17.1,30.1-17.9,48c-1.4,32.6,15.3,63.1,43.1,77.5c12.6,6.5,26.7,10.1,41.5,10.1c20.8,0,40.3-8.1,55-22.8L521.5,209.6c10.5-13.5,17.1-30.1,17.9-48c1.4-32.6-15.3-63.1-43.1-77.5C483.8,77.9,469.6,74.3,454.8,74.3L454.8,74.3z" fill="#DF493B"/>
  <path d="M454.8,74.3c-20.8,0-40.3,8.1-55,22.8L243.6,285.5c-10.5,13.5-17.1,30.1-17.9,48c-1.4,32.6,15.3,63.1,43.1,77.5" fill="none"/>
</svg>
