
<svg xmlns="http://www.w3.org/2000/svg" viewBox="0 0 780 500" width="100%" height="100%">
  <path d="M40,0h700c22.1,0,40,17.9,40,40v420c0,22.1-17.9,40-40,40H40c-22.1,0-40-17.9-40-40V40C0,17.9,17.9,0,40,0z" fill="#0E4595"/>
  <path d="M293.2,348.7l33.4-195.7h53.1l-33.5,195.7H293.2L293.2,348.7z" fill="#fff"/>
  <path d="M518.6,158.1c-10.6-4-27.1-8.2-47.8-8.2c-52.7,0-89.8,26.6-90.1,64.6c-0.3,28.1,26.5,43.9,46.8,53.2c20.8,9.6,27.8,15.7,27.7,24.3c-0.1,13.1-16.6,19.1-32,19.1c-21.4,0-32.8-3-50.3-10.2l-6.9-3.1l-7.5,44.1c12.5,5.5,35.5,10.2,59.4,10.5c56.1,0,92.5-26.3,92.9-67c0.2-22.3-14-39.3-44.7-53.3c-18.6-9.1-30-15.1-29.9-24.3c0-8.1,9.7-16.8,30.5-16.8c17.4-0.3,30,3.5,39.7,7.5l4.8,2.2L518.6,158.1z" fill="#fff"/>
  <path d="M611.1,153h-41.2c-12.7,0-22.3,3.5-27.8,16.2l-78.7,179.5h55.7l11.1-29.4h68.2l6.5,29.4h49.2L611.1,153z M550.1,283.3c4.4-11.3,21.2-54.7,21.2-54.7c-0.3,0.5,4.4-11.3,7.1-18.6l3.6,16.9c0,0,10.2,46.5,12.3,56.4H550.1L550.1,283.3z" fill="#fff"/>
  <path d="M187.6,153l-51.9,133.8l-5.5-27.2c-9.6-30.9-39.5-64.4-73-81.2l47.2,170.2h55.9l83.1-195.7L187.6,153L187.6,153z" fill="#fff"/>
  <path d="M131.4,153H45.6L45,156.1c66.7,16.1,110.9,55,129.2,101.7L159,173.1C156.5,159,145.9,153.5,131.4,153L131.4,153z" fill="#F2AE14"/>
</svg>
